<svg width="194" height="61" viewBox="0 0 194 61" fill="none" xmlns="http://www.w3.org/2000/svg">
<path d="M22.35 4.93951L22.835 4.82309C22.8581 4.81723 22.8804 4.80898 22.9018 4.79846L22.35 4.93951Z" fill="#1465A9"/>
<path d="M51.8861 31.906C53.8083 29.1948 53.3923 25.6933 50.8939 23.3089C50.752 23.2035 50.6475 23.055 50.5959 22.8853C50.5442 22.7156 50.5481 22.5337 50.6069 22.3664C51.7015 18.4351 48.9294 14.544 44.3019 13.4783C44.1217 13.438 43.9459 13.3955 43.8792 13.3776C43.9637 12.4821 44.1506 11.6268 44.1016 10.7783C43.9971 9.08804 43.0449 7.72013 41.4052 6.7664C39.6254 5.73207 37.8189 4.74028 35.9612 3.81117C34.2613 2.96883 32.4434 2.39278 30.5706 2.10296C29.7273 1.95194 28.8687 1.90608 28.0143 1.9664H27.9298C27.3892 2.0067 24.3212 2.2552 22.6904 2.61341L22.468 2.66267C19.4903 3.29899 16.6453 4.45202 14.0606 6.07013C10.2896 8.46117 7.1126 11.938 4.61863 16.4C2.81853 19.6938 1.77261 23.3509 1.55735 27.1037C1.54509 27.2655 1.51828 27.4259 1.47726 27.5828C1.47726 27.6119 1.47726 27.641 1.47726 27.6701V30.8313C1.47616 30.8477 1.47616 30.8642 1.47726 30.8806C1.51508 31.1515 1.5529 31.4246 1.58627 31.6955C1.67304 32.3358 1.76425 33.0007 1.86437 33.6477C2.34082 36.653 3.33622 39.5512 4.80551 42.2112C4.97421 42.5054 5.07695 42.8332 5.10654 43.1716C5.13614 43.51 5.09186 43.8508 4.97682 44.1701C4.12918 46.8007 3.2771 49.4783 2.45616 52.0709C2.13579 53.0761 1.81542 54.0858 1.49283 55.0933C1.49283 55.1112 1.47948 55.1313 1.47281 55.1515V55.438C1.47279 55.4897 1.48339 55.5407 1.50396 55.588C1.656 55.9252 1.92492 56.195 2.26038 56.347C2.3079 56.3685 2.35955 56.3792 2.41166 56.3783H2.78097C2.81801 56.378 2.85478 56.372 2.88999 56.3604L4.72097 55.7582L9.69334 54.1239L10.2962 53.9246C11.422 53.5597 12.5833 53.1768 13.7446 52.8298C13.9549 52.7679 14.173 52.737 14.3921 52.738C14.7584 52.7346 15.1198 52.8223 15.4444 52.9933C17.8271 54.3074 22.597 54.6074 25.3179 55.1739C25.9112 55.2948 26.5044 55.4 27.0977 55.4895C27.5427 55.5545 27.9876 55.6418 28.4326 55.6933L30.1256 55.9731H30.1434C30.6907 56.1142 31.2558 56.2194 31.812 56.3067C32.0839 56.3533 32.3593 56.3765 32.6352 56.3761H34.0079C35.1647 56.0851 36.3661 55.8768 37.4718 55.4806C38.9911 54.9207 40.3275 53.95 41.334 52.6754C41.5667 52.3944 41.8702 52.1817 42.2128 52.0597C46.1684 50.7701 48.7892 47.4567 48.5979 43.8746C48.5734 43.3776 48.7069 43.091 49.2275 42.8089C52.974 40.7604 54.2066 36.2918 51.9284 33.0365C51.6547 32.6403 51.5724 32.347 51.8861 31.906ZM16.4633 50.9806C15.7113 50.5552 15.1129 50.3627 14.5122 50.3627C14.085 50.3698 13.6628 50.4555 13.2663 50.6157C11.6823 51.2201 10.1071 51.7082 8.43856 52.2254C7.74443 52.4492 7.02806 52.6731 6.31391 52.897L4.92343 53.3448C4.86151 53.3648 4.79531 53.3672 4.7321 53.3518C4.6689 53.3364 4.61113 53.3038 4.56514 53.2575C4.51916 53.2113 4.48674 53.1531 4.47145 53.0895C4.45616 53.0259 4.45859 52.9593 4.47847 52.897L5.42623 49.9216C5.87118 48.5403 6.29611 47.2037 6.72104 45.8671C6.78111 45.6768 6.84118 45.4865 6.90347 45.294C7.06588 44.7634 7.23719 44.2149 7.43742 43.6731C7.54419 43.4189 7.5845 43.1414 7.55451 42.8671C7.52452 42.5928 7.42524 42.3307 7.26611 42.1059C5.77501 39.6863 4.7318 37.0148 4.18703 34.2209C2.7743 26.8574 4.25155 20.1567 8.57427 14.2955C12.1539 9.44625 16.7815 6.29849 22.3545 4.91938L22.9062 4.77834L23.6248 4.59699C23.268 5.23387 23.0925 5.95736 23.1176 6.68804V6.70147C23.1176 6.77311 23.1287 6.84699 23.131 6.92535C23.1298 6.93651 23.1298 6.94777 23.131 6.95894C23.1777 7.85446 23.1309 8.74998 23.1465 9.62983C23.1465 9.78878 23.1465 9.94774 23.1465 10.1089C23.1465 11.4343 23.1465 12.7731 23.1465 14.2127V18.0589C23.1465 18.1194 23.1465 18.1776 23.1465 18.2403C23.1376 27.6433 23.1376 37.053 23.1465 46.4694C23.1465 46.6821 23.1465 46.897 23.1465 47.1142C23.3067 50.1097 24.3034 51.8895 24.953 52.7515C24.9909 52.7963 25.0265 52.841 25.0665 52.8858C22.7194 52.4089 18.5279 52.156 16.4633 50.9806ZM44.2729 35.6492C44.6915 35.655 45.1099 35.6325 45.5255 35.5821C47.1691 35.3897 48.7375 34.7812 50.084 33.8134C51.103 35.4164 51.2721 37.0037 50.5579 38.6425C49.9417 40.0574 48.8137 41.0806 47.2363 41.7768C46.4621 42.1171 46.293 42.3813 46.3954 42.9813C46.9916 46.4627 44.9871 49.3082 41.0804 50.4925C40.5701 50.6336 40.1228 50.9455 39.8123 51.3768C38.3098 53.4291 36.1266 54.5015 33.2626 54.594C29.9699 54.6992 26.8819 52.9261 25.7139 50.2552C24.5682 47.647 25.5359 44.5418 28.1322 42.8851C28.9821 42.3388 30.0144 41.9895 30.9888 41.5888C31.6741 41.3067 31.9744 40.8813 31.7297 40.3776C31.5072 39.9097 30.9755 39.7395 30.2391 39.9298C28.5353 40.3432 26.9661 41.1914 25.6828 42.3925C25.5777 42.5137 25.4881 42.6476 25.4158 42.791L25.24 42.6612C25.2277 42.5954 25.2195 42.5288 25.2156 42.4619C25.2156 35.5709 25.2156 28.6754 25.2311 21.7821C25.2404 21.2804 25.3751 20.7892 25.6227 20.3537C26.2167 19.297 27.3068 18.8358 28.6595 18.7418C29.298 18.6948 29.6985 18.294 29.6718 17.8462C29.6451 17.3985 29.1734 16.9686 28.5104 17.0336C27.8122 17.1102 27.1207 17.2389 26.4414 17.4186C26.0448 17.5505 25.6606 17.7175 25.2934 17.9179C25.2556 17.8597 25.22 17.8306 25.22 17.7992C25.22 14.0604 25.1711 10.3216 25.2423 6.58505C25.2779 4.77834 26.8419 3.65893 28.971 3.73953C31.5272 3.8358 33.7253 4.77386 35.8989 5.81266C35.8455 5.85968 35.8233 5.89774 35.7899 5.90894C35.6742 5.94923 35.5518 5.9761 35.4362 6.01416C33.7921 6.52013 32.5239 7.40222 31.703 8.71416C31.3671 9.25595 31.5072 9.75296 32.0434 10.0037C32.2912 10.1241 32.5739 10.1506 32.8395 10.0782C33.1051 10.0058 33.3359 9.83947 33.4895 9.60968C33.5829 9.49326 33.6586 9.36565 33.7498 9.24475C34.9934 7.57237 37.5831 7.00595 39.6677 7.9261C41.7523 8.84625 42.64 10.991 41.7189 12.8C41.6562 12.9534 41.5494 13.0845 41.4123 13.1766C41.2752 13.2687 41.114 13.3176 40.9491 13.3171C39.2104 13.4471 37.5453 14.0773 36.1525 15.1328C34.2548 16.5612 33.2848 18.3746 33.1713 20.5059C33.1513 20.9537 33.2959 21.3724 33.8388 21.4776C34.2088 21.5442 34.5902 21.4768 34.9156 21.2873C35.1536 21.1171 35.2404 20.7276 35.2671 20.4298C35.4629 18.2739 36.6932 16.6709 38.9179 15.65C40.1076 15.1116 41.4153 14.892 42.7142 15.0124C44.0131 15.1329 45.259 15.5893 46.3309 16.3373C48.4711 17.8373 49.2965 20.1119 48.4333 22.3686C48.1441 23.1276 48.302 23.6336 48.9872 24.1977C50.8271 25.7224 51.4345 27.6097 50.7671 29.7074C50.0996 31.7559 48.4822 33.0903 46.075 33.7037C45.4603 33.825 44.8382 33.905 44.2129 33.9433C43.6211 34.0104 43.2251 34.3619 43.2295 34.8164C43.234 35.2709 43.6478 35.6492 44.2729 35.6492Z" fill="#1465A9"/>
<path d="M16.0584 20.7925C16.2796 20.7886 16.4994 20.8292 16.7048 20.912C16.9102 20.9947 17.0972 21.1179 17.2547 21.2743C17.4121 21.4307 17.537 21.6171 17.6219 21.8227C17.7069 22.0283 17.7501 22.2489 17.7492 22.4716C17.7369 22.9093 17.5562 23.3251 17.2453 23.6314C16.9344 23.9377 16.5175 24.1107 16.0824 24.1139C15.6473 24.1171 15.228 23.9503 14.9127 23.6485C14.5974 23.3468 14.4107 22.9337 14.392 22.4962C14.3885 22.2738 14.429 22.0528 14.5111 21.8463C14.5933 21.6397 14.7155 21.4517 14.8706 21.2931C15.0256 21.1345 15.2105 21.0086 15.4145 20.9227C15.6184 20.8367 15.8373 20.7925 16.0584 20.7925Z" fill="#FF6C44"/>
<path d="M16.0584 27.4687C16.2796 27.4651 16.4992 27.506 16.7045 27.5888C16.9098 27.6717 17.0966 27.7948 17.254 27.9512C17.4114 28.1075 17.5363 28.2939 17.6213 28.4993C17.7064 28.7048 17.7499 28.9253 17.7492 29.1478C17.7369 29.5855 17.5563 30.0013 17.2454 30.3076C16.9345 30.614 16.5176 30.7869 16.0825 30.7901C15.6473 30.7933 15.228 30.6265 14.9127 30.3247C14.5974 30.023 14.4107 29.6099 14.3921 29.1725C14.3888 28.9501 14.4295 28.7293 14.5118 28.5228C14.594 28.3164 14.7162 28.1285 14.8713 27.97C15.0263 27.8115 15.2111 27.6855 15.4149 27.5995C15.6186 27.5134 15.8374 27.469 16.0584 27.4687Z" fill="#FF6C44"/>
<path d="M16.0584 34.1471C16.2795 34.1435 16.4992 34.1843 16.7045 34.2672C16.9097 34.35 17.0966 34.4732 17.254 34.6295C17.4114 34.7859 17.5363 34.9722 17.6213 35.1777C17.7064 35.3831 17.7498 35.6036 17.7492 35.8262C17.7369 36.2639 17.5562 36.6796 17.2453 36.986C16.9344 37.2923 16.5175 37.4653 16.0824 37.4685C15.6473 37.4717 15.228 37.3048 14.9127 37.0031C14.5974 36.7013 14.4107 36.2883 14.392 35.8508C14.3885 35.6283 14.429 35.4074 14.5111 35.2008C14.5933 34.9943 14.7155 34.8062 14.8706 34.6477C15.0256 34.4891 15.2105 34.3632 15.4145 34.2772C15.6184 34.1913 15.8373 34.147 16.0584 34.1471Z" fill="#FF6C44"/>
<path d="M37.3917 27.6411C36.7488 27.8471 36.0724 27.9724 35.4005 28.1359C35.6023 28.8813 36.0425 29.5391 36.6531 30.0075C37.492 30.6733 38.5218 31.0494 39.5898 31.0799C40.4263 31.1224 40.8935 31.5277 40.8067 32.0918C40.72 32.656 40.1816 32.8777 39.3807 32.8351C36.4328 32.6829 33.9077 30.8202 33.3293 28.4538C33.2892 28.2993 33.0089 28.1359 32.7976 28.0687C31.8142 27.7463 30.7641 27.5202 29.8119 27.1418C29.1655 26.841 28.5605 26.4573 28.0121 26C27.4848 25.6038 27.4715 25.1045 27.8741 24.7262C28.2768 24.3478 28.8753 24.3501 29.4003 24.7015C29.496 24.7687 29.585 24.8471 29.6784 24.9254C33.3115 27.715 39.2183 26.3695 40.651 22.4112C40.8059 21.884 40.908 21.3425 40.9558 20.7948C40.9683 20.6325 41.0182 20.4753 41.1017 20.3359C41.1852 20.1964 41.2999 20.0785 41.4367 19.9915C41.5734 19.9045 41.7285 19.8509 41.8895 19.8349C42.0505 19.8189 42.213 19.8409 42.3641 19.8993C42.9537 20.0874 43.0782 20.4971 43.0604 20.9739C42.9492 23.8956 40.6755 26.5933 37.3917 27.6411Z" fill="#1465A9"/>
<path d="M43.056 43.2388C43.0782 43.6977 42.6444 44.0806 42.0304 44.1343C41.9035 44.1477 41.779 44.1343 41.6521 44.15C39.7121 44.2686 38.1192 44.947 36.8555 46.203C35.8831 47.1313 35.3105 48.4058 35.2604 49.7537C35.2564 49.8902 35.2247 50.0244 35.1672 50.148C35.1098 50.2717 35.0278 50.3822 34.9263 50.4728C34.8248 50.5634 34.706 50.6322 34.5771 50.6748C34.4482 50.7175 34.312 50.7331 34.1769 50.7209C33.594 50.7007 33.1469 50.2865 33.178 49.7448C33.3226 46.9709 34.7509 44.7836 37.6275 43.4313C38.6465 42.95 38.8823 42.4418 38.6865 41.6045C38.6554 41.4656 38.6443 41.3246 38.6064 41.1836C37.939 38.5776 35.4918 36.8313 32.1813 36.6142C31.347 36.5604 30.9288 36.2291 30.9777 35.6627C31.0222 35.1298 31.4738 34.8522 32.2903 34.8724C34.7687 34.944 36.8444 35.7679 38.5197 37.297C39.2532 37.9361 39.8411 38.727 40.2431 39.6157C40.6451 40.5043 40.8517 41.4698 40.849 42.4462C41.2517 42.4239 41.5832 42.3925 41.9147 42.3903C42.5532 42.388 43.036 42.7507 43.056 43.2388Z" fill="#1465A9"/>
<path d="M68.692 35.2261C67.7858 35.2261 67.0969 34.9888 66.6252 34.5141C66.1535 34.0395 65.9177 33.3559 65.9177 32.4634V17.488C65.9177 16.5925 66.1535 15.9089 66.6252 15.4373C67.0969 14.9656 67.7858 14.7283 68.692 14.7253H74.3541C77.9003 14.7253 80.6442 15.6209 82.5857 17.4119C84.5272 19.203 85.495 21.7231 85.489 24.9724C85.5144 26.4565 85.2592 27.9319 84.7371 29.3201C84.2656 30.5467 83.5248 31.6503 82.5701 32.5485C81.5696 33.4677 80.3812 34.1555 79.0884 34.5634C77.5592 35.042 75.9641 35.2725 74.363 35.2462L68.692 35.2261ZM71.2349 30.894H74.0092C74.9048 30.9128 75.7974 30.7851 76.6522 30.5156C77.3446 30.2945 77.9771 29.9161 78.501 29.4097C79.0098 28.8982 79.387 28.2696 79.6001 27.5783C79.8564 26.7305 79.978 25.8472 79.9605 24.9612C79.9605 22.9462 79.4695 21.4582 78.4877 20.497C77.5058 19.5358 76.013 19.0559 74.0092 19.0574H71.2349V30.894Z" fill="#1465A9"/>
<path d="M98.455 35.5463C96.3934 35.5463 94.5824 35.1053 93.0221 34.2232C91.4842 33.364 90.2251 32.0767 89.3957 30.5157C88.5325 28.9262 88.1009 27.0747 88.1009 24.9612C88.0822 23.4841 88.3318 22.016 88.8373 20.6291C89.3027 19.3787 90.0252 18.2412 90.9575 17.2911C91.8861 16.3506 93.0044 15.6215 94.2368 15.153C95.5881 14.6446 97.0214 14.3934 98.4639 14.412C100.526 14.412 102.332 14.8485 103.883 15.7217C105.415 16.5755 106.674 17.8516 107.51 19.4C108.364 20.9791 108.791 22.8329 108.791 24.9612C108.811 26.4391 108.561 27.9081 108.055 29.2956C107.591 30.5501 106.873 31.6937 105.946 32.6538C105.019 33.6009 103.9 34.3348 102.664 34.8053C101.319 35.3125 99.8916 35.5638 98.455 35.5463ZM98.455 31.0687C99.3753 31.0981 100.283 30.8442 101.056 30.3411C101.797 29.8211 102.369 29.0931 102.702 28.2478C103.113 27.2027 103.31 26.0848 103.281 24.9612C103.281 23.0433 102.857 21.5508 102.01 20.4836C101.163 19.4165 99.9768 18.8836 98.4506 18.8851C97.5378 18.8601 96.6382 19.1078 95.8654 19.597C95.1178 20.1013 94.5386 20.8207 94.2035 21.6612C93.7901 22.7103 93.5933 23.8331 93.625 24.9612C93.625 26.8806 94.0485 28.3784 94.8954 29.4545C95.7423 30.5306 96.9288 31.0687 98.455 31.0687Z" fill="#1465A9"/>
<path d="M122.238 35.5462C119.983 35.5462 118.047 35.1104 116.429 34.2388C114.853 33.4075 113.56 32.1211 112.716 30.5447C111.857 28.9552 111.428 27.094 111.43 24.9611C111.41 23.484 111.66 22.0157 112.166 20.629C112.632 19.3745 113.361 18.2358 114.304 17.291C115.274 16.3378 116.437 15.6083 117.715 15.1529C119.168 14.6405 120.699 14.3896 122.238 14.4119C123.166 14.4168 124.09 14.5196 124.997 14.7186C125.88 14.8961 126.733 15.2047 127.526 15.6343C128.01 15.8702 128.405 16.2574 128.652 16.738C128.861 17.161 128.939 17.6378 128.874 18.1059C128.812 18.5585 128.637 18.988 128.367 19.3552C128.113 19.7128 127.747 19.9744 127.328 20.0984C126.858 20.2188 126.36 20.1506 125.94 19.9082C125.387 19.646 124.812 19.4369 124.22 19.2835C123.638 19.1341 123.041 19.0589 122.44 19.0596C121.246 19.0596 120.249 19.288 119.448 19.7447C118.651 20.1978 118.018 20.8951 117.641 21.735C117.21 22.7543 117.003 23.8559 117.036 24.9634C117.004 26.0752 117.21 27.181 117.641 28.2052C118.013 29.0547 118.646 29.7612 119.448 30.2201C120.249 30.6679 121.246 30.8955 122.44 30.9029C122.984 30.8979 123.527 30.8349 124.058 30.7149C124.647 30.5843 125.219 30.3837 125.762 30.1171C126.243 29.8751 126.792 29.8033 127.319 29.9134C127.753 30.0167 128.139 30.2625 128.418 30.6119C128.696 30.9613 128.88 31.3769 128.952 31.8186C129.028 32.2751 128.963 32.7439 128.765 33.1619C128.54 33.63 128.166 34.009 127.702 34.2388C126.921 34.6867 126.077 35.0114 125.199 35.2014C124.228 35.4302 123.235 35.5459 122.238 35.5462Z" fill="#1465A9"/>
<path d="M134.49 35.488C133.643 35.488 132.988 35.2507 132.525 34.7761C132.062 34.3014 131.831 33.6298 131.831 32.7611V17.197C131.831 16.3014 132.062 15.6231 132.525 15.1619C132.986 14.6962 133.638 14.4634 134.49 14.4634C135.342 14.4634 136.016 14.6873 136.47 15.1619C136.924 15.6365 137.148 16.3059 137.148 17.197V22.635H145.558V17.197C145.558 16.3014 145.78 15.6231 146.225 15.1619C146.67 14.7007 147.33 14.4679 148.205 14.4634C149.051 14.4634 149.703 14.6873 150.154 15.1619C150.606 15.6365 150.835 16.3059 150.835 17.197V32.7544C150.835 33.6276 150.608 34.2992 150.154 34.7694C149.709 35.244 149.042 35.4813 148.205 35.4813C147.369 35.4813 146.677 35.244 146.225 34.7694C145.774 34.2947 145.558 33.6208 145.558 32.7544V27.0253H137.148V32.7544C137.148 33.6276 136.926 34.2992 136.481 34.7694C136.036 35.2395 135.372 35.4791 134.49 35.488Z" fill="#1465A9"/>
<path d="M155.498 35.4881C154.966 35.5067 154.441 35.3597 153.994 35.0672C153.798 34.9338 153.63 34.762 153.501 34.562C153.373 34.3619 153.285 34.1378 153.244 33.903C153.158 33.3321 153.248 32.7482 153.502 32.2306L160.7 16.6441C160.971 15.9844 161.415 15.4116 161.986 14.9874C162.5 14.6365 163.11 14.4536 163.732 14.4635C164.346 14.4499 164.948 14.6334 165.452 14.9874C166.011 15.4226 166.454 15.9923 166.738 16.6441L173.935 32.2306C174.222 32.7431 174.338 33.3348 174.266 33.9187C174.233 34.1524 174.152 34.3766 174.027 34.5767C173.903 34.7769 173.738 34.9485 173.543 35.0806C173.11 35.3634 172.6 35.5056 172.084 35.4881C171.314 35.4881 170.721 35.3135 170.304 34.9642C169.81 34.4955 169.429 33.9187 169.192 33.2784L167.634 29.5844L169.657 31.0687H157.752L159.803 29.5844L158.246 33.2784C157.996 33.9023 157.633 34.474 157.176 34.9642C156.808 35.3135 156.249 35.4881 155.498 35.4881ZM163.676 20.309L160.324 28.3687L159.516 26.9672H167.926L167.116 28.3642L163.734 20.3045L163.676 20.309Z" fill="#1465A9"/>
<path d="M183.904 35.5463C183.097 35.5435 182.291 35.4905 181.49 35.3873C180.685 35.2874 179.888 35.1265 179.107 34.906C178.412 34.7147 177.734 34.4622 177.083 34.1515C176.617 33.9491 176.231 33.5962 175.986 33.1485C175.778 32.741 175.701 32.2789 175.764 31.8254C175.814 31.3764 175.984 30.9495 176.255 30.5895C176.52 30.2329 176.896 29.9765 177.323 29.8619C177.831 29.7436 178.364 29.8102 178.827 30.05C179.621 30.4193 180.455 30.6929 181.312 30.8649C182.167 31.0517 183.038 31.1493 183.913 31.156C185.184 31.156 186.074 30.9866 186.583 30.6477C187.092 30.3075 187.348 29.8866 187.348 29.3806C187.353 29.1712 187.307 28.9638 187.214 28.7765C187.121 28.5892 186.983 28.4276 186.814 28.306C186.458 28.0358 185.827 27.803 184.921 27.6075L181.541 26.8798C179.69 26.4918 178.312 25.8134 177.408 24.8448C176.503 23.8761 176.048 22.6269 176.044 21.097C176.027 20.1546 176.235 19.2219 176.649 18.3767C177.064 17.5316 177.673 16.7985 178.427 16.2388C179.245 15.6307 180.165 15.1757 181.143 14.8955C182.284 14.5591 183.467 14.3938 184.656 14.4052C185.682 14.408 186.704 14.5206 187.706 14.741C188.644 14.9289 189.545 15.2675 190.376 15.744C190.79 15.9486 191.126 16.2856 191.33 16.7022C191.516 17.0961 191.593 17.5331 191.553 17.9672C191.521 18.386 191.366 18.7858 191.108 19.1157C190.847 19.448 190.48 19.6797 190.069 19.7716C189.539 19.8674 188.993 19.7889 188.511 19.5477C187.906 19.2821 187.27 19.0918 186.618 18.9813C185.946 18.8587 185.264 18.7958 184.58 18.7933C183.965 18.7789 183.351 18.862 182.76 19.0395C182.322 19.1658 181.927 19.4123 181.619 19.7515C181.363 20.0508 181.225 20.4337 181.23 20.8283C181.229 21.028 181.274 21.2251 181.362 21.4042C181.449 21.5833 181.577 21.7395 181.735 21.8604C182.071 22.1425 182.694 22.3798 183.599 22.5724L186.95 23.3C188.819 23.7074 190.216 24.3791 191.141 25.3149C192.067 26.2507 192.529 27.4627 192.527 28.9507C192.541 29.897 192.334 30.8334 191.922 31.6843C191.512 32.5035 190.918 33.2149 190.187 33.7619C189.37 34.3677 188.449 34.8162 187.47 35.0851C186.309 35.4072 185.108 35.5624 183.904 35.5463Z" fill="#1465A9"/>
<path d="M65.6953 45.8112C65.6641 45.8129 65.633 45.808 65.6039 45.7969C65.5747 45.7857 65.5483 45.7685 65.5262 45.7463C65.4837 45.6968 65.4621 45.6325 65.4661 45.5672V40.5747C65.4634 40.5416 65.4674 40.5083 65.4777 40.4768C65.488 40.4452 65.5045 40.4161 65.5262 40.3911C65.5742 40.3506 65.6348 40.3285 65.6975 40.3285C65.7601 40.3285 65.8207 40.3506 65.8688 40.3911C65.8909 40.4159 65.9078 40.445 65.9185 40.4765C65.9292 40.5081 65.9335 40.5414 65.9311 40.5747V45.5672C65.9345 45.6321 65.9139 45.6959 65.8732 45.7463C65.8501 45.7696 65.8222 45.7876 65.7914 45.7988C65.7607 45.81 65.7278 45.8143 65.6953 45.8112Z" fill="#FF6C44"/>
<path d="M68.2337 45.8111C68.2018 45.8151 68.1694 45.8117 68.139 45.8012C68.1086 45.7907 68.0809 45.7734 68.0582 45.7505C68.0354 45.7276 68.0182 45.6998 68.0077 45.6692C67.9973 45.6386 67.9939 45.6059 67.9979 45.5738V42.247C67.993 42.1802 68.0146 42.1142 68.058 42.0634C68.0818 42.0421 68.1096 42.0258 68.1398 42.0154C68.17 42.005 68.2019 42.0008 68.2337 42.0029C68.2634 42.0016 68.2931 42.0062 68.321 42.0166C68.3489 42.027 68.3744 42.0429 68.3961 42.0634C68.4379 42.115 68.4586 42.1806 68.454 42.247V42.9656L68.3694 42.9208C68.4562 42.6344 68.6406 42.3879 68.89 42.2246C69.1278 42.084 69.3957 42.0033 69.6711 41.9893C69.9465 41.9752 70.2212 42.0283 70.4718 42.144C70.67 42.247 70.8271 42.4153 70.9168 42.6208C71.0214 42.8753 71.0707 43.1494 71.0614 43.4246V45.5738C71.0636 45.6058 71.0594 45.638 71.049 45.6683C71.0387 45.6987 71.0225 45.7267 71.0013 45.7507C70.9791 45.7717 70.9529 45.788 70.9241 45.7984C70.8954 45.8088 70.8649 45.8131 70.8345 45.8111C70.7703 45.815 70.7071 45.7933 70.6587 45.7507C70.6375 45.7267 70.6213 45.6987 70.611 45.6683C70.6007 45.638 70.5965 45.6058 70.5986 45.5738V43.4626C70.622 43.1731 70.5432 42.8846 70.3762 42.6477C70.2849 42.557 70.1752 42.4872 70.0546 42.4432C69.934 42.3991 69.8054 42.3818 69.6776 42.3925C69.5139 42.3837 69.3502 42.4094 69.1969 42.468C69.0437 42.5266 68.9043 42.6168 68.7877 42.7328C68.6746 42.855 68.5869 42.9988 68.53 43.1557C68.4731 43.3126 68.448 43.4794 68.4562 43.6462V45.5738C68.4606 45.7238 68.385 45.8111 68.2337 45.8111Z" fill="#FF6C44"/>
<path d="M74.3073 45.8112C74.2386 45.8135 74.1711 45.7922 74.116 45.7507C74.0587 45.6996 74.0125 45.6371 73.9803 45.5671L72.6121 42.3656C72.5864 42.3121 72.5771 42.2521 72.5854 42.1932C72.5913 42.1428 72.6159 42.0964 72.6543 42.0634C72.7005 42.0273 72.7584 42.0097 72.8168 42.0141C72.8702 42.0105 72.9231 42.0264 72.9658 42.0589C73.0051 42.1003 73.0348 42.15 73.0526 42.2044L74.4052 45.4932H74.2161L75.5755 42.2044C75.5946 42.1497 75.6258 42.0999 75.6667 42.0589C75.7112 42.0266 75.7654 42.0108 75.8202 42.0141C75.8467 42.0119 75.8734 42.0151 75.8986 42.0235C75.9239 42.032 75.9472 42.0456 75.967 42.0634C76.0006 42.0969 76.0211 42.1414 76.0249 42.1888C76.0288 42.2472 76.0181 42.3057 75.9937 42.3589L74.6255 45.5783C74.6018 45.6512 74.5569 45.7152 74.4965 45.7619C74.4402 45.7982 74.374 45.8154 74.3073 45.8112Z" fill="#FF6C44"/>
<path d="M79.164 45.8268C78.8234 45.8375 78.4857 45.7604 78.1829 45.603C77.9127 45.4513 77.6935 45.2222 77.5533 44.9447C77.4081 44.6262 77.333 44.2799 77.333 43.9294C77.333 43.579 77.4081 43.2327 77.5533 42.9142C77.6912 42.6308 77.9071 42.3932 78.1753 42.2297C78.4435 42.0662 78.7527 41.9836 79.0661 41.9918C79.2911 41.9877 79.5145 42.0304 79.7224 42.1171C79.9096 42.1992 80.076 42.3223 80.2097 42.4776C80.349 42.6435 80.4535 42.8362 80.5167 43.044C80.5911 43.2876 80.6271 43.5414 80.6235 43.7962C80.626 43.8257 80.6222 43.8554 80.6122 43.8833C80.6022 43.9111 80.5863 43.9364 80.5656 43.9574C80.5224 43.9947 80.4667 44.014 80.4099 44.0112H77.6667V43.6664H80.3365L80.2163 43.7671C80.2225 43.5096 80.1786 43.2533 80.0873 43.0127C80.009 42.8181 79.875 42.6513 79.7024 42.5336C79.5145 42.4161 79.2961 42.3576 79.075 42.3656C78.8251 42.3577 78.5786 42.4255 78.3675 42.5604C78.1744 42.6931 78.0243 42.8799 77.9359 43.0977C77.8346 43.3461 77.7854 43.6129 77.7913 43.8813V43.9194C77.766 44.3243 77.8931 44.7239 78.1473 45.0388C78.2766 45.1731 78.4332 45.2778 78.6063 45.3458C78.7795 45.4138 78.9651 45.4434 79.1507 45.4328C79.3349 45.4325 79.5183 45.4069 79.6957 45.3567C79.8801 45.2999 80.0532 45.2112 80.2074 45.0948C80.251 45.0632 80.3029 45.0453 80.3565 45.0433C80.3998 45.041 80.4424 45.0545 80.4766 45.0813C80.5087 45.1047 80.5328 45.1376 80.5456 45.1753C80.5611 45.2149 80.5611 45.2589 80.5456 45.2985C80.5227 45.3465 80.4873 45.3875 80.4432 45.4171C80.2694 45.555 80.0707 45.6576 79.8581 45.7194C79.6334 45.7899 79.3994 45.8261 79.164 45.8268Z" fill="#FF6C44"/>
<path d="M83.5268 45.8268C83.2969 45.826 83.068 45.7952 82.846 45.735C82.6151 45.6711 82.3978 45.5649 82.2053 45.4216C82.1676 45.4006 82.1391 45.3663 82.1252 45.3253C82.1146 45.2865 82.1146 45.2455 82.1252 45.2067C82.1337 45.1682 82.1521 45.1327 82.1786 45.1037C82.2064 45.0765 82.2424 45.0592 82.2809 45.0544C82.3278 45.0506 82.3745 45.0642 82.4122 45.0925C82.5883 45.2149 82.7828 45.3079 82.9884 45.3678C83.1718 45.4184 83.3611 45.444 83.5513 45.444C83.7993 45.4601 84.0463 45.3991 84.2587 45.2693C84.3355 45.2171 84.398 45.1462 84.4404 45.0633C84.4828 44.9803 84.5037 44.888 84.5012 44.7947C84.5055 44.7239 84.4937 44.653 84.4667 44.5875C84.4397 44.5219 84.3983 44.4634 84.3455 44.4164C84.1963 44.304 84.0236 44.2274 83.8405 44.1925L83.1731 44.0402C82.9086 43.9967 82.6626 43.876 82.4656 43.6932C82.3126 43.5226 82.2327 43.2982 82.2431 43.0686C82.239 42.8642 82.2989 42.6637 82.4144 42.4955C82.5382 42.3257 82.7071 42.1946 82.9016 42.1171C83.1319 42.0236 83.3786 41.9779 83.6269 41.9828C83.8435 41.9822 84.0589 42.0154 84.2654 42.0813C84.4623 42.1443 84.6436 42.2489 84.7971 42.388C84.8353 42.4135 84.8635 42.4515 84.8772 42.4955C84.8906 42.5339 84.8906 42.5757 84.8772 42.6141C84.8662 42.6516 84.8436 42.6845 84.8127 42.7081C84.7837 42.7351 84.7454 42.7495 84.7059 42.7484C84.6592 42.746 84.6143 42.7296 84.5769 42.7014C84.3032 42.4877 83.9666 42.3719 83.6202 42.3723C83.3795 42.3576 83.1406 42.4221 82.9394 42.5559C82.8623 42.6129 82.8001 42.6879 82.7583 42.7745C82.7164 42.8611 82.6961 42.9567 82.6992 43.0529C82.6964 43.1236 82.7082 43.1942 82.7339 43.26C82.7595 43.3259 82.7985 43.3858 82.8482 43.4358C82.9816 43.5506 83.1428 43.6278 83.3154 43.6596L83.9829 43.8119C84.254 43.8611 84.5082 43.979 84.7215 44.1544C84.8031 44.2319 84.867 44.3263 84.9089 44.431C84.9507 44.5358 84.9695 44.6484 84.964 44.7611C84.969 44.9124 84.9366 45.0625 84.8698 45.198C84.8031 45.3336 84.7039 45.4504 84.5813 45.538C84.2706 45.7475 83.9002 45.849 83.5268 45.8268Z" fill="#FF6C44"/>
<path d="M88.072 45.8269C87.8352 45.835 87.6003 45.7826 87.389 45.6747C87.2078 45.5735 87.0636 45.4166 86.9774 45.2269C86.88 45.0043 86.8336 44.7625 86.8417 44.5194V42.4239H86.2788C86.2214 42.4266 86.1648 42.4092 86.1187 42.3747C86.0985 42.3574 86.0826 42.3357 86.0722 42.3112C86.0617 42.2868 86.0571 42.2602 86.0586 42.2336C86.0576 42.2081 86.0626 42.1827 86.073 42.1594C86.0834 42.1361 86.099 42.1155 86.1187 42.0993C86.1648 42.0648 86.2214 42.0474 86.2788 42.05H86.8417V41.0941C86.8388 41.0613 86.8427 41.0283 86.853 40.9971C86.8633 40.9659 86.8799 40.9372 86.9018 40.9127C86.9513 40.8725 87.014 40.8526 87.0775 40.8568C87.1077 40.8542 87.138 40.8578 87.1667 40.8674C87.1954 40.8771 87.2218 40.8925 87.2444 40.9127C87.2662 40.9372 87.2828 40.9659 87.2932 40.9971C87.3035 41.0283 87.3074 41.0613 87.3045 41.0941V42.05H88.3234C88.3804 42.0454 88.437 42.0631 88.4814 42.0993C88.4993 42.1165 88.5133 42.1375 88.5225 42.1606C88.5317 42.1838 88.5359 42.2087 88.5348 42.2336C88.5363 42.2596 88.5323 42.2856 88.5231 42.3099C88.5139 42.3342 88.4997 42.3563 88.4814 42.3747C88.437 42.4109 88.3804 42.4285 88.3234 42.4239H87.2956V44.459C87.279 44.7111 87.3463 44.9616 87.4869 45.1709C87.5656 45.2583 87.6635 45.3259 87.7729 45.3682C87.8822 45.4106 87.9999 45.4266 88.1165 45.415C88.203 45.4171 88.2893 45.4058 88.3724 45.3814C88.427 45.3598 88.485 45.3477 88.5437 45.3456C88.5617 45.3458 88.5795 45.3502 88.5957 45.3583C88.6119 45.3665 88.626 45.3782 88.6371 45.3926C88.6695 45.4337 88.6846 45.4859 88.6794 45.5381C88.6791 45.5798 88.67 45.621 88.6527 45.659C88.6451 45.6788 88.6325 45.6963 88.6161 45.7097C88.5997 45.723 88.5801 45.7318 88.5592 45.7351C88.4868 45.7608 88.4124 45.7803 88.3368 45.7933C88.2497 45.8126 88.1611 45.8238 88.072 45.8269Z" fill="#FF6C44"/>
<path d="M90.2478 41.1008C90.1576 41.1063 90.0688 41.0757 90.0009 41.0157C89.9701 40.9848 89.9462 40.9476 89.9308 40.9067C89.9155 40.8658 89.909 40.822 89.9119 40.7784C89.9102 40.7368 89.9173 40.6954 89.9326 40.6569C89.948 40.6183 89.9712 40.5834 90.0009 40.5545C90.0699 40.4969 90.1583 40.4681 90.2478 40.4739C90.3372 40.4687 90.4254 40.4975 90.4948 40.5545C90.5237 40.5838 90.5463 40.6189 90.5612 40.6574C90.5761 40.6959 90.583 40.7371 90.5815 40.7784C90.5842 40.8218 90.5779 40.8654 90.563 40.9062C90.548 40.9471 90.5248 40.9844 90.4948 41.0157C90.4265 41.0751 90.338 41.1056 90.2478 41.1008ZM90.2478 45.8022C90.2154 45.8046 90.1829 45.7999 90.1525 45.7883C90.1222 45.7767 90.0947 45.7585 90.0721 45.7351C90.0303 45.6834 90.0089 45.618 90.012 45.5515V42.2694C90.0073 42.2027 90.0289 42.1367 90.0721 42.0858C90.0958 42.0644 90.1236 42.048 90.1538 42.0376C90.184 42.0273 90.216 42.0231 90.2478 42.0254C90.2783 42.0234 90.3088 42.0278 90.3375 42.0382C90.3662 42.0485 90.3925 42.0648 90.4147 42.0858C90.4578 42.1367 90.4794 42.2027 90.4747 42.2694V45.5448C90.4783 45.6107 90.4586 45.6757 90.4191 45.7284C90.397 45.7512 90.3702 45.769 90.3407 45.7806C90.3111 45.7922 90.2795 45.7973 90.2478 45.7955V45.8022Z" fill="#FF6C44"/>
<path d="M92.6951 45.8111C92.6632 45.8151 92.6308 45.8117 92.6003 45.8012C92.5699 45.7907 92.5423 45.7734 92.5195 45.7505C92.4968 45.7276 92.4796 45.6998 92.4691 45.6692C92.4587 45.6386 92.4553 45.6059 92.4593 45.5738V42.247C92.4543 42.1802 92.4759 42.1142 92.5193 42.0634C92.5432 42.0421 92.571 42.0258 92.6012 42.0154C92.6313 42.005 92.6633 42.0008 92.6951 42.0029C92.7248 42.0016 92.7545 42.0062 92.7824 42.0166C92.8103 42.027 92.8358 42.0429 92.8575 42.0634C92.8992 42.115 92.9199 42.1806 92.9153 42.247V42.9656L92.8308 42.9208C92.9176 42.6344 93.1019 42.3879 93.3514 42.2246C93.5891 42.084 93.8571 42.0033 94.1325 41.9893C94.4079 41.9752 94.6826 42.0283 94.9332 42.144C95.1314 42.247 95.2884 42.4153 95.3782 42.6208C95.4827 42.8753 95.532 43.1494 95.5228 43.4246V45.5738C95.5249 45.6058 95.5207 45.638 95.5104 45.6683C95.5001 45.6987 95.4839 45.7267 95.4627 45.7507C95.4405 45.7717 95.4142 45.788 95.3855 45.7984C95.3568 45.8088 95.3263 45.8131 95.2958 45.8111C95.2316 45.815 95.1685 45.7933 95.1201 45.7507C95.0989 45.7267 95.0827 45.6987 95.0724 45.6683C95.0621 45.638 95.0579 45.6058 95.06 45.5738V43.4626C95.0833 43.1731 95.0046 42.8846 94.8375 42.6477C94.7463 42.557 94.6366 42.4872 94.516 42.4432C94.3954 42.3991 94.2668 42.3818 94.139 42.3925C93.9753 42.3837 93.8115 42.4094 93.6583 42.468C93.505 42.5266 93.3656 42.6168 93.249 42.7328C93.1359 42.855 93.0483 42.9988 92.9913 43.1557C92.9344 43.3126 92.9093 43.4794 92.9176 43.6462V45.5738C92.922 45.7238 92.8464 45.8111 92.6951 45.8111Z" fill="#FF6C44"/>
<path d="M99.0802 47.2037C98.8121 47.2048 98.545 47.1702 98.2859 47.1007C98.0351 47.0343 97.7989 46.9212 97.5896 46.7671C97.5519 46.7451 97.5235 46.7101 97.5095 46.6686C97.4989 46.6298 97.4989 46.5888 97.5095 46.55C97.5195 46.5116 97.5386 46.4763 97.5651 46.447C97.5917 46.4177 97.6282 46.3994 97.6674 46.3955C97.708 46.3919 97.7488 46.3997 97.7854 46.4179C97.9824 46.553 98.1983 46.6579 98.4261 46.7291C98.6354 46.7877 98.8518 46.817 99.069 46.8164C99.2235 46.8275 99.3785 46.8055 99.5238 46.7518C99.6692 46.6982 99.8015 46.6141 99.9122 46.5052C100.119 46.2603 100.223 45.9438 100.201 45.6231V44.6716H100.277C100.212 44.971 100.039 45.2357 99.7921 45.4149C99.5311 45.5966 99.2194 45.69 98.9022 45.6813C98.5904 45.6933 98.2817 45.6156 98.0123 45.4574C97.7623 45.3017 97.5629 45.0761 97.4383 44.8082C97.2988 44.5046 97.2296 44.1732 97.2358 43.8388C97.2323 43.584 97.2714 43.3305 97.3515 43.0888C97.4212 42.8751 97.5332 42.6778 97.6808 42.5089C97.8249 42.3462 98.0026 42.2171 98.2014 42.1306C98.4202 42.0378 98.6559 41.9921 98.8933 41.9962C99.2113 41.9868 99.5237 42.0819 99.7832 42.2671C100.027 42.4433 100.197 42.7041 100.262 42.9992L100.186 43.044V42.2559C100.181 42.1892 100.203 42.1231 100.246 42.0724C100.294 42.0331 100.353 42.0116 100.415 42.0116C100.477 42.0116 100.536 42.0331 100.584 42.0724C100.626 42.1239 100.647 42.1896 100.642 42.2559V45.5604C100.674 46.0085 100.532 46.4516 100.246 46.7962C100.09 46.9412 99.9058 47.0522 99.7053 47.1223C99.5047 47.1924 99.2919 47.2201 99.0802 47.2037ZM98.9578 45.2761C99.1932 45.2836 99.4255 45.2204 99.6252 45.0947C99.8133 44.9716 99.9623 44.7968 100.055 44.591C100.16 44.3485 100.212 44.0856 100.206 43.8209C100.226 43.4402 100.107 43.0654 99.8722 42.7664C99.7599 42.6373 99.6203 42.5353 99.4635 42.4678C99.3068 42.4004 99.137 42.3693 98.9667 42.3768C98.7322 42.3698 98.5007 42.4304 98.2993 42.5515C98.1092 42.6712 97.9595 42.8461 97.8699 43.053C97.7651 43.2949 97.7142 43.557 97.7208 43.8209C97.6999 44.2041 97.8194 44.5817 98.0568 44.8821C98.1676 45.012 98.3063 45.115 98.4623 45.1832C98.6184 45.2515 98.7878 45.2832 98.9578 45.2761Z" fill="#FF6C44"/>
<path d="M105.541 41.1008C105.451 41.1064 105.362 41.0758 105.294 41.0157C105.264 40.9844 105.241 40.9471 105.226 40.9063C105.211 40.8654 105.204 40.8219 105.207 40.7784C105.206 40.7371 105.213 40.6959 105.227 40.6574C105.242 40.6189 105.265 40.5839 105.294 40.5545C105.366 40.5021 105.452 40.4739 105.541 40.4739C105.63 40.4739 105.716 40.5021 105.788 40.5545C105.817 40.5839 105.839 40.6189 105.854 40.6574C105.869 40.6959 105.876 40.7371 105.875 40.7784C105.877 40.8219 105.871 40.8654 105.856 40.9063C105.841 40.9471 105.818 40.9844 105.788 41.0157C105.72 41.0758 105.631 41.1064 105.541 41.1008ZM105.541 45.8023C105.509 45.8047 105.476 45.7999 105.446 45.7883C105.415 45.7767 105.388 45.7586 105.365 45.7351C105.323 45.6835 105.302 45.6181 105.305 45.5516V42.2695C105.3 42.2027 105.322 42.1368 105.365 42.0859C105.414 42.0433 105.477 42.0216 105.541 42.0254C105.571 42.0235 105.602 42.0278 105.631 42.0382C105.659 42.0486 105.686 42.0648 105.708 42.0859C105.751 42.1368 105.772 42.2027 105.768 42.2695V45.5448C105.771 45.6107 105.752 45.6757 105.712 45.7284C105.69 45.7512 105.663 45.7691 105.634 45.7806C105.604 45.7922 105.573 45.7973 105.541 45.7956V45.8023Z" fill="#FF6C44"/>
<path d="M107.988 45.8113C107.957 45.8134 107.925 45.8091 107.895 45.7987C107.865 45.7883 107.838 45.772 107.815 45.7508C107.792 45.7276 107.775 45.6998 107.764 45.6692C107.753 45.6387 107.749 45.6062 107.752 45.5739V42.2471C107.75 42.2138 107.754 42.1804 107.765 42.1488C107.775 42.1172 107.792 42.0882 107.815 42.0635C107.838 42.0422 107.865 42.026 107.895 42.0156C107.925 42.0052 107.957 42.0009 107.988 42.003C108.018 42.0014 108.048 42.0059 108.077 42.0163C108.105 42.0267 108.131 42.0427 108.153 42.0635C108.194 42.1154 108.214 42.181 108.208 42.2471V42.9657L108.126 42.921C108.211 42.6337 108.396 42.3867 108.647 42.2247C108.884 42.0841 109.152 42.0034 109.427 41.9894C109.702 41.9754 109.976 42.0284 110.226 42.1441C110.424 42.2474 110.581 42.4156 110.671 42.621C110.775 42.8757 110.824 43.1495 110.816 43.4247V45.5739C110.819 45.6062 110.815 45.6387 110.804 45.6692C110.793 45.6998 110.776 45.7276 110.754 45.7508C110.731 45.7718 110.705 45.7881 110.676 45.7985C110.648 45.8089 110.617 45.8132 110.587 45.8113C110.555 45.8134 110.524 45.8091 110.494 45.7987C110.464 45.7883 110.437 45.772 110.413 45.7508C110.391 45.7276 110.373 45.6998 110.363 45.6692C110.352 45.6387 110.348 45.6062 110.351 45.5739V43.4627C110.374 43.1732 110.295 42.8847 110.128 42.6478C110.037 42.5571 109.927 42.4874 109.807 42.4433C109.686 42.3993 109.558 42.382 109.43 42.3926C109.266 42.3838 109.102 42.4095 108.949 42.4681C108.796 42.5267 108.656 42.6169 108.54 42.7329C108.427 42.8552 108.34 42.9991 108.283 43.156C108.227 43.3129 108.202 43.4796 108.211 43.6463V45.5739C108.215 45.605 108.213 45.6366 108.203 45.6666C108.194 45.6965 108.178 45.7239 108.156 45.7467C108.135 45.7695 108.109 45.7872 108.08 45.7983C108.05 45.8095 108.019 45.8139 107.988 45.8113Z" fill="#FF6C44"/>
<path d="M116.222 47.1881C116.196 47.1901 116.17 47.1867 116.145 47.1782C116.12 47.1698 116.097 47.1564 116.077 47.1388C116.06 47.1222 116.045 47.1022 116.035 47.0799C116.025 47.0576 116.02 47.0334 116.02 47.009C116.018 46.9526 116.027 46.8964 116.046 46.8433L116.571 45.6433V45.8672L115.081 42.3657C115.057 42.3115 115.048 42.2521 115.054 42.1933C115.06 42.1428 115.085 42.0964 115.123 42.0635C115.169 42.0274 115.227 42.0098 115.285 42.0142C115.339 42.0106 115.392 42.0265 115.434 42.059C115.474 42.1004 115.503 42.1501 115.521 42.2045L116.874 45.5H116.685L118.037 42.2023C118.058 42.1455 118.093 42.0947 118.138 42.0545C118.181 42.0223 118.235 42.0072 118.289 42.012C118.316 42.0099 118.343 42.0132 118.368 42.0217C118.394 42.0301 118.417 42.0436 118.438 42.0612C118.47 42.0955 118.49 42.1397 118.494 42.1866C118.497 42.2451 118.487 42.3036 118.462 42.3568L116.48 47.0135C116.46 47.0706 116.425 47.121 116.378 47.159C116.33 47.1839 116.276 47.1941 116.222 47.1881Z" fill="#FF6C44"/>
<path d="M121.497 45.8269C121.184 45.8335 120.876 45.7512 120.607 45.5896C120.351 45.4279 120.146 45.1945 120.02 44.9179C119.873 44.5991 119.801 44.2505 119.811 43.8993C119.806 43.6326 119.846 43.367 119.928 43.1135C120 42.8894 120.116 42.6823 120.269 42.5045C120.418 42.3354 120.602 42.2022 120.809 42.115C121.03 42.0236 121.267 41.978 121.506 41.9806C121.823 41.9718 122.137 42.0541 122.409 42.2179C122.666 42.3793 122.871 42.6127 122.999 42.8896C123.145 43.2062 123.216 43.5525 123.208 43.9015C123.211 44.1719 123.172 44.441 123.09 44.6985C123.018 44.9216 122.902 45.1274 122.747 45.303C122.599 45.47 122.416 45.6016 122.211 45.6881C121.985 45.7833 121.742 45.8306 121.497 45.8269ZM121.497 45.4373C121.728 45.443 121.956 45.3808 122.153 45.2582C122.344 45.13 122.493 44.9477 122.58 44.7344C122.684 44.471 122.734 44.1893 122.727 43.906C122.752 43.5055 122.635 43.1092 122.398 42.7866C122.289 42.657 122.153 42.554 121.998 42.4853C121.844 42.4167 121.677 42.3842 121.508 42.3903C121.279 42.3841 121.053 42.4465 120.858 42.5694C120.667 42.6953 120.518 42.8763 120.431 43.0888C120.327 43.3498 120.277 43.6294 120.284 43.9105C120.258 44.316 120.376 44.7178 120.618 45.0433C120.726 45.171 120.861 45.2727 121.013 45.3409C121.165 45.4091 121.33 45.442 121.497 45.4373Z" fill="#FF6C44"/>
<path d="M126.247 45.8269C125.993 45.8358 125.74 45.7804 125.513 45.6657C125.315 45.5602 125.158 45.3906 125.068 45.1843C124.965 44.9326 124.915 44.6618 124.923 44.3896V42.247C124.918 42.1802 124.94 42.1142 124.983 42.0634C125.032 42.0208 125.095 41.9991 125.159 42.003C125.189 42.001 125.22 42.0054 125.249 42.0158C125.277 42.0262 125.304 42.0424 125.326 42.0634C125.369 42.1142 125.391 42.1802 125.386 42.247V44.3649C125.364 44.6495 125.442 44.9327 125.608 45.1642C125.696 45.2579 125.804 45.3303 125.924 45.376C126.044 45.4218 126.173 45.4397 126.3 45.4284C126.456 45.4347 126.611 45.407 126.755 45.3471C126.899 45.2872 127.029 45.1965 127.135 45.0814C127.355 44.8301 127.47 44.5026 127.455 44.1679V42.247C127.45 42.1802 127.472 42.1142 127.515 42.0634C127.539 42.0421 127.567 42.0258 127.597 42.0154C127.627 42.0051 127.659 42.0008 127.691 42.003C127.721 42.001 127.752 42.0054 127.78 42.0158C127.809 42.0262 127.835 42.0424 127.858 42.0634C127.901 42.1142 127.923 42.1802 127.918 42.247V45.5739C127.918 45.7328 127.844 45.8112 127.695 45.8112C127.665 45.8132 127.634 45.8088 127.605 45.7984C127.577 45.788 127.551 45.7718 127.528 45.7508C127.507 45.7268 127.491 45.6988 127.481 45.6684C127.47 45.638 127.466 45.6059 127.468 45.5739V44.8284L127.559 44.8821C127.478 45.1705 127.301 45.4219 127.057 45.594C126.816 45.7522 126.534 45.8334 126.247 45.8269Z" fill="#FF6C44"/>
<path d="M130.149 45.8112C130.117 45.8152 130.085 45.8118 130.054 45.8013C130.024 45.7908 129.996 45.7734 129.974 45.7505C129.951 45.7276 129.934 45.6998 129.923 45.6692C129.913 45.6386 129.909 45.606 129.913 45.5739V42.247C129.908 42.1802 129.93 42.1142 129.973 42.0634C129.997 42.0421 130.025 42.0258 130.055 42.0154C130.085 42.005 130.117 42.0008 130.149 42.003C130.179 42.0016 130.208 42.0063 130.236 42.0166C130.264 42.027 130.29 42.0429 130.311 42.0634C130.353 42.115 130.374 42.1806 130.369 42.247V42.9186H130.294C130.372 42.6365 130.545 42.3903 130.783 42.2224C131.034 42.055 131.329 41.9669 131.631 41.9694C131.684 41.9639 131.738 41.9783 131.782 42.0097C131.804 42.0263 131.821 42.0482 131.832 42.0732C131.843 42.0983 131.847 42.1257 131.844 42.153C131.848 42.1823 131.845 42.2121 131.837 42.2405C131.829 42.2689 131.816 42.2955 131.798 42.3186C131.75 42.3624 131.689 42.3877 131.624 42.3903H131.517C131.205 42.4048 130.908 42.532 130.681 42.7485C130.58 42.8596 130.501 42.9898 130.45 43.1317C130.4 43.2735 130.377 43.4241 130.385 43.5746V45.556C130.389 45.6202 130.368 45.6835 130.327 45.7328C130.305 45.7579 130.277 45.7778 130.246 45.7913C130.216 45.8048 130.183 45.8116 130.149 45.8112Z" fill="#FF6C44"/>
<path d="M136.198 45.8112C136.166 45.8135 136.134 45.8093 136.104 45.799C136.074 45.7886 136.046 45.7722 136.022 45.7508C136.001 45.7268 135.985 45.6988 135.975 45.6684C135.964 45.6381 135.96 45.6059 135.962 45.5739V42.247C135.957 42.1803 135.979 42.1142 136.022 42.0635C136.046 42.042 136.074 42.0257 136.104 42.0153C136.134 42.0049 136.166 42.0007 136.198 42.003C136.228 42.0017 136.258 42.0063 136.286 42.0167C136.313 42.0271 136.339 42.043 136.361 42.0635C136.402 42.115 136.423 42.1807 136.418 42.247V42.9747L136.334 42.9209C136.408 42.6439 136.571 42.3995 136.799 42.2269C137.027 42.0641 137.301 41.98 137.58 41.9873C137.86 41.9728 138.136 42.0567 138.361 42.2247C138.57 42.4076 138.705 42.6605 138.743 42.9366H138.63C138.71 42.6592 138.88 42.4167 139.113 42.247C139.355 42.0723 139.647 41.9812 139.945 41.9873C140.182 41.9784 140.417 42.0341 140.626 42.1485C140.809 42.2587 140.952 42.4261 141.033 42.6254C141.131 42.8798 141.177 43.1517 141.168 43.4247V45.5739C141.172 45.606 141.169 45.6386 141.159 45.6693C141.148 45.6999 141.131 45.7277 141.108 45.7506C141.085 45.7734 141.058 45.7908 141.027 45.8013C140.997 45.8118 140.964 45.8152 140.933 45.8112C140.902 45.8132 140.872 45.8089 140.843 45.7985C140.814 45.7881 140.788 45.7718 140.766 45.7508C140.744 45.7268 140.728 45.6988 140.718 45.6684C140.708 45.6381 140.703 45.6059 140.706 45.5739V43.4627C140.728 43.1774 140.66 42.8922 140.512 42.6478C140.431 42.5568 140.33 42.4862 140.216 42.4419C140.103 42.3975 139.981 42.3806 139.86 42.3926C139.714 42.3867 139.568 42.4143 139.434 42.4732C139.3 42.5322 139.181 42.6209 139.086 42.7329C138.881 42.9946 138.778 43.3226 138.797 43.6553V45.5739C138.799 45.6059 138.795 45.6381 138.784 45.6684C138.774 45.6988 138.758 45.7268 138.737 45.7508C138.714 45.7718 138.688 45.7881 138.66 45.7985C138.631 45.8089 138.6 45.8132 138.57 45.8112C138.538 45.8135 138.506 45.8093 138.476 45.799C138.446 45.7886 138.418 45.7722 138.394 45.7508C138.373 45.7268 138.357 45.6988 138.346 45.6684C138.336 45.6381 138.332 45.6059 138.334 45.5739V43.4627C138.356 43.1774 138.289 42.8922 138.14 42.6478C138.061 42.5573 137.961 42.4871 137.849 42.4427C137.738 42.3984 137.617 42.3812 137.497 42.3926C137.35 42.386 137.203 42.4132 137.067 42.4721C136.931 42.5311 136.811 42.6202 136.714 42.7329C136.51 42.9946 136.407 43.3226 136.425 43.6553V45.5739C136.425 45.7239 136.35 45.8112 136.198 45.8112Z" fill="#FF6C44"/>
<path d="M144.748 45.8268C144.408 45.8371 144.071 45.76 143.769 45.603C143.498 45.4517 143.278 45.2225 143.137 44.9447C142.992 44.6262 142.917 44.2799 142.917 43.9294C142.917 43.579 142.992 43.2327 143.137 42.9142C143.275 42.6308 143.491 42.3932 143.759 42.2297C144.027 42.0662 144.337 41.9836 144.65 41.9918C144.879 41.9865 145.106 42.0292 145.318 42.1171C145.504 42.1992 145.67 42.3224 145.803 42.4776C145.944 42.6427 146.049 42.8356 146.112 43.044C146.184 43.288 146.22 43.5416 146.216 43.7962C146.219 43.8255 146.215 43.855 146.206 43.8828C146.196 43.9105 146.181 43.936 146.161 43.9574C146.118 43.9947 146.062 44.014 146.005 44.0112H143.251V43.6664H145.92L145.798 43.7671C145.805 43.5095 145.762 43.253 145.669 43.0127C145.592 42.8176 145.458 42.6506 145.284 42.5336C145.096 42.4161 144.878 42.3576 144.657 42.3656C144.408 42.3574 144.162 42.4253 143.952 42.5604C143.757 42.6923 143.606 42.8794 143.518 43.0977C143.417 43.3464 143.368 43.613 143.373 43.8813V43.9194C143.348 44.3247 143.475 44.7247 143.731 45.0388C143.86 45.1733 144.017 45.2782 144.19 45.3462C144.363 45.4142 144.549 45.4437 144.735 45.4328C144.918 45.4326 145.101 45.407 145.278 45.3567C145.462 45.2995 145.636 45.2109 145.791 45.0948C145.837 45.0648 145.891 45.0499 145.945 45.0522C145.989 45.05 146.032 45.0635 146.067 45.0903C146.099 45.1137 146.124 45.1465 146.136 45.1843C146.151 45.2241 146.151 45.2677 146.136 45.3074C146.114 45.356 146.079 45.3972 146.034 45.4261C145.855 45.5641 145.651 45.6653 145.433 45.7239C145.211 45.7919 144.98 45.8266 144.748 45.8268Z" fill="#FF6C44"/>
<path d="M148.147 45.8112C148.116 45.8135 148.084 45.8093 148.053 45.7989C148.023 45.7885 147.995 45.7721 147.972 45.7507C147.951 45.7267 147.934 45.6987 147.924 45.6684C147.914 45.638 147.909 45.6059 147.912 45.5739V42.247C147.907 42.1802 147.928 42.1142 147.972 42.0634C147.995 42.042 148.023 42.0256 148.053 42.0152C148.084 42.0048 148.116 42.0007 148.147 42.003C148.177 42.0016 148.207 42.0063 148.235 42.0166C148.263 42.027 148.288 42.0429 148.31 42.0634C148.352 42.115 148.372 42.1806 148.368 42.247V42.9657L148.283 42.9209C148.37 42.6344 148.554 42.3879 148.804 42.2246C149.042 42.0822 149.312 42.0003 149.589 41.9858C149.866 41.9714 150.142 42.0249 150.394 42.1418C150.592 42.2455 150.749 42.4136 150.839 42.6186C150.944 42.8731 150.993 43.1471 150.984 43.4224V45.5716C150.986 45.6036 150.982 45.6358 150.972 45.6661C150.961 45.6965 150.945 45.7245 150.924 45.7485C150.902 45.7695 150.876 45.7858 150.847 45.7962C150.818 45.8066 150.788 45.8109 150.757 45.8089C150.725 45.8112 150.693 45.8071 150.663 45.7967C150.633 45.7863 150.605 45.7699 150.581 45.7485C150.56 45.7245 150.544 45.6965 150.534 45.6661C150.523 45.6358 150.519 45.6036 150.521 45.5716V43.4627C150.545 43.1732 150.466 42.8846 150.299 42.6477C150.207 42.5567 150.097 42.4868 149.976 42.4427C149.855 42.3987 149.726 42.3815 149.598 42.3925C149.436 42.3854 149.275 42.4119 149.124 42.4704C148.974 42.529 148.836 42.6183 148.721 42.7328C148.608 42.855 148.521 42.9989 148.464 43.1557C148.407 43.3126 148.382 43.4794 148.39 43.6462V45.5739C148.374 45.7239 148.299 45.8112 148.147 45.8112Z" fill="#FF6C44"/>
<path d="M154.319 45.8269C154.082 45.8349 153.847 45.7826 153.636 45.6746C153.454 45.5741 153.31 45.417 153.224 45.2269C153.127 45.0043 153.081 44.7625 153.089 44.5194V42.4239H152.526C152.468 42.4271 152.412 42.4097 152.366 42.3746C152.345 42.3574 152.33 42.3357 152.319 42.3112C152.309 42.2868 152.304 42.2602 152.306 42.2336C152.305 42.2081 152.31 42.1827 152.32 42.1593C152.33 42.136 152.346 42.1155 152.366 42.0993C152.412 42.0642 152.468 42.0468 152.526 42.05H153.089V41.0941C153.086 41.0613 153.09 41.0283 153.1 40.9971C153.11 40.9659 153.127 40.9372 153.149 40.9127C153.199 40.8763 153.259 40.8567 153.32 40.8567C153.382 40.8567 153.442 40.8763 153.491 40.9127C153.513 40.9372 153.53 40.9659 153.54 40.9971C153.551 41.0283 153.554 41.0613 153.551 41.0941V42.05H154.577C154.635 42.0448 154.692 42.0625 154.737 42.0993C154.755 42.1165 154.769 42.1374 154.778 42.1606C154.788 42.1838 154.792 42.2087 154.791 42.2336C154.792 42.2596 154.788 42.2856 154.779 42.3099C154.77 42.3342 154.756 42.3563 154.737 42.3746C154.692 42.4114 154.635 42.4291 154.577 42.4239H153.551V44.459C153.534 44.7108 153.601 44.9613 153.741 45.1709C153.82 45.2583 153.918 45.3259 154.028 45.3683C154.137 45.4106 154.255 45.4266 154.372 45.4149C154.458 45.4171 154.544 45.4058 154.626 45.3814C154.681 45.36 154.739 45.3479 154.797 45.3455C154.816 45.3459 154.834 45.3503 154.85 45.3585C154.867 45.3666 154.881 45.3782 154.893 45.3926C154.923 45.4346 154.938 45.4861 154.935 45.5381C154.935 45.5798 154.926 45.621 154.909 45.659C154.901 45.6791 154.888 45.6968 154.871 45.7102C154.854 45.7235 154.834 45.7322 154.813 45.7351C154.741 45.7612 154.666 45.7807 154.59 45.7933C154.501 45.8128 154.41 45.824 154.319 45.8269Z" fill="#FF6C44"/>
<path d="M157.374 45.8269C157.143 45.8313 156.914 45.7815 156.706 45.6814C156.52 45.5898 156.361 45.4499 156.246 45.2761C156.133 45.1092 156.073 44.9117 156.074 44.7097C156.062 44.4747 156.134 44.2431 156.279 44.0582C156.468 43.8752 156.711 43.7589 156.971 43.7269C157.412 43.6534 157.859 43.6212 158.306 43.6306H158.633V43.9754H158.312C157.956 43.9693 157.599 43.988 157.245 44.0314C157.049 44.0452 156.862 44.1186 156.708 44.2418C156.656 44.2997 156.616 44.3676 156.59 44.4414C156.564 44.5152 156.553 44.5935 156.557 44.6717C156.553 44.7763 156.573 44.8805 156.613 44.9768C156.654 45.0731 156.715 45.1593 156.793 45.2291C156.969 45.3833 157.198 45.4635 157.431 45.453C157.634 45.4566 157.833 45.4023 158.005 45.2963C158.171 45.1892 158.306 45.0402 158.397 44.8642C158.495 44.6695 158.545 44.4535 158.542 44.2351V43.3642C158.565 43.0987 158.491 42.8337 158.335 42.6187C158.249 42.5362 158.146 42.4735 158.033 42.4348C157.921 42.3962 157.801 42.3825 157.683 42.3948C157.493 42.3939 157.305 42.4195 157.122 42.4709C156.923 42.5311 156.73 42.6129 156.548 42.715C156.504 42.7422 156.452 42.7533 156.401 42.7463C156.362 42.7378 156.326 42.7156 156.301 42.6836C156.278 42.6513 156.262 42.6136 156.257 42.5739C156.248 42.5306 156.255 42.4856 156.275 42.4463C156.299 42.4033 156.337 42.3689 156.381 42.3478C156.587 42.2339 156.805 42.1452 157.031 42.0836C157.241 42.027 157.457 41.9977 157.674 41.9963C157.929 41.987 158.183 42.0392 158.415 42.1485C158.604 42.2429 158.757 42.3981 158.849 42.5896C158.951 42.8392 158.998 43.1079 158.989 43.3776V45.565C158.993 45.6285 158.974 45.6913 158.935 45.7418C158.915 45.7627 158.89 45.779 158.863 45.7894C158.836 45.7999 158.807 45.8042 158.777 45.8023C158.747 45.8039 158.716 45.7994 158.687 45.789C158.658 45.7787 158.631 45.7626 158.608 45.7418C158.587 45.7178 158.571 45.6898 158.561 45.6595C158.55 45.6291 158.546 45.597 158.548 45.565V44.862H158.626C158.586 45.0496 158.503 45.2252 158.384 45.3747C158.273 45.5244 158.127 45.6443 157.959 45.7239C157.773 45.7994 157.574 45.8345 157.374 45.8269Z" fill="#FF6C44"/>
<path d="M162.026 45.8268C161.879 45.8354 161.733 45.8111 161.597 45.7558C161.461 45.7004 161.339 45.6153 161.24 45.5067C161.042 45.2497 160.943 44.9291 160.962 44.6044V40.5746C160.959 40.5419 160.963 40.509 160.974 40.478C160.984 40.4471 161.002 40.4189 161.024 40.3955C161.073 40.3542 161.135 40.3334 161.198 40.3373C161.259 40.3339 161.319 40.3548 161.365 40.3955C161.387 40.4194 161.404 40.4477 161.415 40.4785C161.425 40.5093 161.43 40.542 161.427 40.5746V44.5529C161.408 44.7901 161.469 45.0269 161.601 45.2246C161.662 45.2993 161.741 45.3585 161.829 45.3974C161.917 45.4362 162.014 45.4537 162.11 45.4484C162.153 45.4511 162.196 45.4511 162.239 45.4484C162.275 45.4451 162.31 45.4451 162.346 45.4484C162.364 45.4448 162.382 45.4453 162.4 45.4499C162.418 45.4546 162.434 45.4633 162.448 45.4753C162.476 45.5168 162.488 45.5668 162.482 45.6164C162.486 45.6748 162.468 45.7326 162.431 45.7776C162.38 45.8193 162.319 45.8457 162.255 45.8537C162.219 45.8597 162.182 45.8635 162.146 45.8649C162.105 45.8546 162.065 45.8419 162.026 45.8268Z" fill="#FF6C44"/>
<path d="M166.8 45.8111C166.768 45.8133 166.737 45.809 166.707 45.7986C166.677 45.7882 166.65 45.7719 166.626 45.7507C166.604 45.7275 166.587 45.6997 166.576 45.6691C166.565 45.6386 166.561 45.6061 166.564 45.5738V40.5746C166.561 40.5419 166.565 40.509 166.576 40.478C166.586 40.4471 166.604 40.4189 166.626 40.3955C166.675 40.3542 166.737 40.3334 166.8 40.3373C166.861 40.3339 166.921 40.3548 166.967 40.3955C166.99 40.4189 167.007 40.4471 167.018 40.478C167.029 40.509 167.032 40.5419 167.029 40.5746V42.932H166.938C167.023 42.6448 167.208 42.3978 167.458 42.2358C167.712 42.0748 168.007 41.9922 168.306 41.9984C168.56 41.9892 168.812 42.0446 169.038 42.1596C169.237 42.2641 169.394 42.434 169.483 42.641C169.586 42.8928 169.635 43.1636 169.628 43.4358V45.585C169.631 45.6173 169.627 45.6498 169.616 45.6803C169.605 45.7109 169.588 45.7387 169.565 45.7619C169.543 45.7829 169.517 45.7992 169.488 45.8096C169.459 45.82 169.429 45.8243 169.398 45.8223C169.367 45.8244 169.335 45.8202 169.306 45.8098C169.276 45.7994 169.248 45.7831 169.225 45.7619C169.202 45.7387 169.185 45.7109 169.175 45.6803C169.164 45.6498 169.16 45.6173 169.163 45.585V43.4626C169.186 43.1731 169.107 42.8846 168.94 42.6477C168.849 42.557 168.739 42.4872 168.619 42.4432C168.498 42.3991 168.369 42.3818 168.242 42.3925C168.078 42.3837 167.914 42.4094 167.761 42.468C167.608 42.5266 167.468 42.6168 167.352 42.7328C167.239 42.8551 167.152 42.999 167.095 43.1559C167.038 43.3128 167.014 43.4795 167.022 43.6462V45.5738C167.027 45.6049 167.024 45.6365 167.015 45.6664C167.006 45.6964 166.99 45.7237 166.968 45.7466C166.947 45.7694 166.921 45.787 166.891 45.7982C166.862 45.8094 166.831 45.8138 166.8 45.8111Z" fill="#FF6C44"/>
<path d="M173.185 45.8268C172.844 45.8375 172.507 45.7604 172.204 45.603C171.934 45.4513 171.715 45.2222 171.574 44.9447C171.429 44.6262 171.354 44.2799 171.354 43.9294C171.354 43.579 171.429 43.2327 171.574 42.9142C171.712 42.6308 171.928 42.3932 172.196 42.2297C172.465 42.0662 172.774 41.9836 173.087 41.9918C173.316 41.9862 173.543 42.0289 173.755 42.1171C173.942 42.1986 174.109 42.3219 174.242 42.4776C174.381 42.6435 174.486 42.8362 174.549 43.044C174.623 43.2876 174.659 43.5414 174.656 43.7962C174.658 43.8255 174.654 43.855 174.645 43.8828C174.635 43.9105 174.62 43.936 174.6 43.9574C174.557 43.9947 174.501 44.014 174.444 44.0112H171.688V43.6664H174.358L174.237 43.7671C174.244 43.5096 174.2 43.2533 174.108 43.0127C174.03 42.8181 173.896 42.6513 173.723 42.5336C173.533 42.4143 173.311 42.3558 173.087 42.3656C172.838 42.3574 172.592 42.4253 172.382 42.5604C172.184 42.6907 172.029 42.8779 171.937 43.0977C171.836 43.3461 171.786 43.6129 171.792 43.8813V43.9194C171.767 44.3243 171.894 44.7239 172.148 45.0388C172.278 45.1731 172.434 45.2778 172.607 45.3458C172.78 45.4138 172.966 45.4434 173.152 45.4328C173.336 45.4326 173.519 45.407 173.697 45.3567C173.881 45.2999 174.054 45.2112 174.208 45.0948C174.252 45.0632 174.304 45.0453 174.358 45.0433C174.399 45.0413 174.44 45.0531 174.474 45.077C174.509 45.1009 174.534 45.1355 174.547 45.1753C174.562 45.2149 174.562 45.2589 174.547 45.2985C174.524 45.3471 174.489 45.3882 174.444 45.4171C174.27 45.555 174.072 45.6576 173.859 45.7194C173.641 45.7879 173.414 45.8241 173.185 45.8268Z" fill="#FF6C44"/>
<path d="M177.488 45.8269C177.257 45.831 177.029 45.7812 176.82 45.6813C176.634 45.5928 176.474 45.4561 176.358 45.2851C176.245 45.1182 176.185 44.9206 176.186 44.7187C176.173 44.4837 176.246 44.252 176.391 44.0672C176.579 43.8837 176.822 43.7673 177.083 43.7358C177.524 43.6622 177.971 43.63 178.418 43.6395H178.745V43.9843H178.427C178.07 43.9783 177.713 43.997 177.359 44.0403C177.163 44.0537 176.976 44.1271 176.823 44.2507C176.769 44.3083 176.729 44.376 176.702 44.4499C176.676 44.5238 176.664 44.6022 176.669 44.6806C176.666 44.7851 176.685 44.8891 176.726 44.9854C176.767 45.0816 176.828 45.1678 176.905 45.2381C177.082 45.3916 177.31 45.4717 177.543 45.4619C177.746 45.4656 177.945 45.4112 178.117 45.3052C178.284 45.1986 178.419 45.0495 178.509 44.8731C178.609 44.6789 178.658 44.4626 178.654 44.244V43.3731C178.677 43.1079 178.605 42.843 178.449 42.6276C178.362 42.5448 178.259 42.4819 178.146 42.4433C178.033 42.4046 177.913 42.3911 177.795 42.4037C177.606 42.403 177.418 42.4286 177.236 42.4798C177.037 42.5392 176.844 42.6211 176.662 42.7239C176.618 42.7516 176.565 42.7627 176.513 42.7552C176.474 42.7468 176.44 42.7245 176.415 42.6925C176.392 42.6602 176.376 42.6225 176.371 42.5828C176.362 42.5395 176.369 42.4945 176.389 42.4552C176.412 42.4113 176.45 42.3766 176.496 42.3567C176.701 42.2428 176.919 42.1541 177.145 42.0925C177.355 42.0357 177.571 42.0064 177.788 42.0052C178.044 41.9964 178.297 42.0486 178.529 42.1575C178.721 42.257 178.874 42.4187 178.963 42.6164C179.065 42.866 179.113 43.1347 179.103 43.4045V45.5918C179.107 45.6553 179.088 45.7182 179.05 45.7687C179.029 45.7899 179.004 45.8063 178.976 45.8167C178.948 45.8272 178.919 45.8314 178.889 45.8291C178.859 45.8311 178.828 45.8267 178.8 45.8163C178.771 45.8059 178.745 45.7897 178.723 45.7687C178.701 45.7447 178.685 45.7167 178.675 45.6863C178.664 45.6559 178.66 45.6238 178.662 45.5918V44.8888H178.738C178.697 45.0766 178.614 45.2522 178.493 45.4015C178.378 45.5444 178.23 45.6572 178.062 45.7306C177.879 45.802 177.684 45.8347 177.488 45.8269Z" fill="#FF6C44"/>
<path d="M182.14 45.8269C181.993 45.8353 181.846 45.811 181.71 45.7557C181.574 45.7003 181.452 45.6153 181.352 45.5067C181.153 45.2471 181.055 44.923 181.076 44.5955V40.5746C181.074 40.5422 181.078 40.5096 181.088 40.4788C181.098 40.448 181.115 40.4196 181.136 40.3955C181.185 40.3541 181.248 40.3333 181.312 40.3373C181.343 40.3346 181.374 40.339 181.404 40.3502C181.433 40.3614 181.459 40.3791 181.48 40.4019C181.502 40.4247 181.518 40.4521 181.527 40.482C181.537 40.5119 181.539 40.5436 181.535 40.5746V44.553C181.515 44.7905 181.577 45.0277 181.71 45.2246C181.772 45.2998 181.85 45.3592 181.938 45.3982C182.027 45.4371 182.123 45.4543 182.22 45.4485C182.263 45.4511 182.306 45.4511 182.349 45.4485C182.384 45.4452 182.42 45.4452 182.456 45.4485C182.474 45.445 182.492 45.4456 182.51 45.4502C182.528 45.4549 182.544 45.4635 182.558 45.4754C182.586 45.5168 182.597 45.5669 182.591 45.6164C182.595 45.6751 182.576 45.733 182.538 45.7776C182.489 45.8194 182.428 45.8459 182.364 45.8537C182.328 45.8598 182.29 45.8635 182.253 45.8649C182.215 45.8545 182.177 45.8418 182.14 45.8269Z" fill="#FF6C44"/>
<path d="M185.341 45.8269C185.104 45.835 184.868 45.7826 184.656 45.6747C184.475 45.5734 184.332 45.4164 184.247 45.2269C184.148 45.0045 184.101 44.7627 184.109 44.5194V42.4239H183.544C183.486 42.4266 183.43 42.4092 183.383 42.3747C183.363 42.3574 183.347 42.3357 183.337 42.3112C183.326 42.2868 183.322 42.2602 183.323 42.2336C183.322 42.2081 183.327 42.1827 183.338 42.1594C183.348 42.1361 183.364 42.1155 183.383 42.0993C183.43 42.0648 183.486 42.0474 183.544 42.05H184.106V41.0941C184.104 41.0613 184.107 41.0283 184.118 40.9971C184.128 40.9659 184.145 40.9372 184.167 40.9127C184.216 40.8725 184.279 40.8526 184.342 40.8568C184.372 40.8542 184.403 40.8578 184.431 40.8674C184.46 40.8771 184.487 40.8925 184.509 40.9127C184.531 40.9372 184.548 40.9659 184.558 40.9971C184.568 41.0283 184.572 41.0613 184.569 41.0941V42.05H185.597C185.654 42.0454 185.711 42.0631 185.755 42.0993C185.773 42.1165 185.787 42.1375 185.796 42.1606C185.805 42.1838 185.81 42.2087 185.808 42.2336C185.81 42.2596 185.806 42.2856 185.797 42.3099C185.788 42.3342 185.773 42.3563 185.755 42.3747C185.711 42.4109 185.654 42.4285 185.597 42.4239H184.569V44.459C184.553 44.7111 184.62 44.9616 184.761 45.1709C184.84 45.2585 184.938 45.3261 185.048 45.3685C185.157 45.4109 185.275 45.4268 185.392 45.415C185.478 45.417 185.564 45.4056 185.646 45.3814C185.701 45.3598 185.759 45.3477 185.817 45.3456C185.835 45.3458 185.853 45.3502 185.869 45.3583C185.886 45.3665 185.9 45.3782 185.911 45.3926C185.943 45.4337 185.958 45.4859 185.953 45.5381C185.953 45.5798 185.944 45.621 185.926 45.659C185.919 45.6788 185.906 45.6963 185.89 45.7097C185.873 45.723 185.854 45.7318 185.833 45.7351C185.761 45.7611 185.686 45.7805 185.61 45.7933C185.522 45.8129 185.432 45.8241 185.341 45.8269Z" fill="#FF6C44"/>
<path d="M187.515 45.8112C187.483 45.8152 187.45 45.8118 187.42 45.8013C187.39 45.7908 187.362 45.7734 187.339 45.7505C187.317 45.7276 187.299 45.6998 187.289 45.6692C187.278 45.6386 187.275 45.606 187.279 45.5739V40.5746C187.276 40.5422 187.28 40.5096 187.291 40.4788C187.301 40.448 187.317 40.4196 187.339 40.3955C187.388 40.3541 187.451 40.3333 187.515 40.3373C187.546 40.3346 187.577 40.339 187.606 40.3502C187.635 40.3614 187.662 40.3791 187.683 40.4019C187.704 40.4247 187.72 40.4521 187.73 40.482C187.739 40.5119 187.742 40.5436 187.737 40.5746V42.9321H187.646C187.733 42.6456 187.917 42.3991 188.167 42.2358C188.42 42.0753 188.715 41.9928 189.014 41.9985C189.269 41.9895 189.521 42.045 189.748 42.1597C189.947 42.2638 190.105 42.4339 190.193 42.641C190.298 42.8925 190.347 43.1635 190.338 43.4358V45.5851C190.34 45.6171 190.336 45.6492 190.326 45.6796C190.315 45.71 190.299 45.7379 190.278 45.7619C190.256 45.783 190.229 45.7992 190.201 45.8096C190.172 45.82 190.142 45.8244 190.111 45.8224C190.079 45.8264 190.047 45.823 190.016 45.8125C189.986 45.802 189.958 45.7846 189.936 45.7617C189.913 45.7388 189.896 45.711 189.885 45.6804C189.875 45.6498 189.871 45.6172 189.875 45.5851V43.4627C189.899 43.1732 189.82 42.8847 189.653 42.6478C189.561 42.5568 189.451 42.4868 189.33 42.4428C189.209 42.3987 189.08 42.3816 188.952 42.3925C188.79 42.3854 188.629 42.4119 188.478 42.4705C188.328 42.529 188.19 42.6184 188.075 42.7328C187.962 42.8551 187.875 42.9989 187.818 43.1558C187.761 43.3127 187.736 43.4794 187.744 43.6463V45.5739C187.742 45.7239 187.666 45.8112 187.515 45.8112Z" fill="#FF6C44"/>
</svg>
